<?xml version="1.0" encoding="UTF-8" standalone="no"?>
<!DOCTYPE svg PUBLIC "-//W3C//DTD SVG 1.1//EN" "http://www.w3.org/Graphics/SVG/1.1/DTD/svg11.dtd">
<svg width="100%" height="100%" viewBox="0 0 2000 1000" version="1.1" xmlns="http://www.w3.org/2000/svg" xmlns:xlink="http://www.w3.org/1999/xlink" xml:space="preserve" xmlns:serif="http://www.serif.com/" style="fill-rule:evenodd;clip-rule:evenodd;stroke-linejoin:round;stroke-miterlimit:2;">
    <g transform="matrix(1,0,0,1,-2192.76,-2316.05)">
        <g id="Artboard7" transform="matrix(1,0,0,1,2192.76,2316.05)">
            <rect x="0" y="0" width="2000" height="1000" style="fill:none;"/>
            <clipPath id="_clip1">
                <rect x="0" y="0" width="2000" height="1000"/>
            </clipPath>
            <g clip-path="url(#_clip1)">
                <g transform="matrix(1.25513,0,0,1.25513,-248.473,-96.2048)">
                    <g transform="matrix(1,0,0,1,994.666,-258.981)">
                        <g transform="matrix(0.820537,0,0,0.820537,26.8016,83.3909)">
                            <path d="M670.004,440.945C696.045,419.809 729.219,407.141 765.329,407.141C848.897,407.141 916.743,474.987 916.743,558.555L916.743,611.278C916.743,611.83 916.74,612.38 916.734,612.93C918.568,613.699 920.414,614.359 922.243,614.858C937.469,618.938 942.864,648.25 934.283,680.274C925.702,712.299 906.374,734.986 891.148,730.906C890.8,730.813 890.458,730.707 890.121,730.588C883.237,728.251 878.72,722.497 875.95,714.624C865.207,726.116 852.697,735.936 838.851,743.65L884.696,770.838C888.783,773.261 890.133,778.547 887.709,782.634C885.286,786.721 880,788.071 875.913,785.647L837.124,762.644L848.461,804.955C849.691,809.544 846.963,814.269 842.374,815.499C837.784,816.728 833.06,814.001 831.83,809.411C831.83,809.411 820.403,766.764 820.403,766.764L798.289,805.065C795.913,809.18 790.644,810.592 786.529,808.216C782.414,805.841 781.002,800.571 783.378,796.456L806.08,757.136C793.11,760.756 779.444,762.692 765.329,762.692C750.847,762.692 736.837,760.654 723.566,756.849L746.595,797.836C748.922,801.978 747.449,807.23 743.307,809.557C739.165,811.885 733.913,810.411 731.585,806.269L709.496,766.956L698.16,809.264C696.93,813.853 692.206,816.581 687.617,815.351C683.028,814.121 680.3,809.397 681.53,804.808C681.53,804.808 692.956,762.163 692.956,762.163L654.657,784.275C650.543,786.651 645.274,785.239 642.898,781.124C640.523,777.01 641.934,771.741 646.049,769.365L691.189,743.303C677.588,735.644 665.287,725.944 654.708,714.624C651.938,722.497 647.421,728.251 640.537,730.588C640.2,730.707 639.858,730.813 639.51,730.906C624.284,734.986 604.956,712.299 596.375,680.274C587.794,648.25 593.189,618.938 608.415,614.858C610.244,614.359 612.09,613.699 613.924,612.93C613.918,612.38 613.915,611.83 613.915,611.278L613.915,558.555C613.915,549.947 614.635,541.507 616.018,533.29L566.46,508.919L620.839,490.53L631.57,398.016L670.004,440.945ZM752.944,458.003C746.143,451.011 731.603,454.105 720.495,464.909C709.386,475.714 705.889,490.162 712.69,497.155C719.49,504.147 734.031,501.052 745.139,490.248C756.248,479.444 759.745,464.995 752.944,458.003Z" style="fill:rgb(0,104,54);"/>
                        </g>
                        <g transform="matrix(2.33936,0.857988,-0.857988,2.33936,722.619,-912.8)">
                            <path d="M173.662,534.316C196.226,521.624 194.111,500 194.111,500C194.111,500 205.186,516.299 206.597,531.107C208.007,545.915 151.098,547.008 173.662,534.316Z" style="fill:rgb(0,104,54);"/>
                        </g>
                        <g transform="matrix(0.701974,2.39081,-2.39081,0.701974,1823.96,-365.339)">
                            <path d="M177.341,532.845C199.905,520.152 194.111,500 194.111,500C194.111,500 209.623,511.047 211.034,525.854C212.444,540.662 154.777,545.537 177.341,532.845Z" style="fill:rgb(0,104,54);"/>
                        </g>
                    </g>
                    <g transform="matrix(1,0,0,1,120.59,11.4879)">
                        <g transform="matrix(0.820537,0,0,0.820537,26.8016,83.3909)">
                            <path d="M83.266,281.769C83.26,281.22 83.257,280.669 83.257,280.117L83.257,227.394C83.257,143.827 151.103,75.98 234.671,75.98C305.001,75.98 364.197,124.035 381.187,189.08L445.462,233L386.085,273.573L386.085,280.117C386.085,280.669 386.082,281.22 386.076,281.769C387.91,282.538 389.756,283.199 391.585,283.697C406.811,287.777 412.206,317.089 403.625,349.114C395.044,381.138 375.716,403.825 360.49,399.746C360.142,399.653 359.8,399.546 359.463,399.427C352.579,397.091 348.062,391.336 345.292,383.463C334.203,395.325 321.233,405.405 306.857,413.224L354.053,441.214C358.14,443.637 359.49,448.923 357.066,453.01C354.643,457.097 349.357,458.447 345.27,456.023L306.481,433.02L317.818,475.33C319.048,479.92 316.32,484.645 311.731,485.874C307.141,487.104 302.417,484.376 301.187,479.787C301.187,479.787 289.76,437.139 289.76,437.139L267.646,475.441C265.27,479.556 260.001,480.968 255.886,478.592C251.771,476.217 250.359,470.947 252.735,466.832L276.5,425.669C263.212,429.487 249.178,431.531 234.671,431.531C219.821,431.531 205.467,429.389 191.895,425.394L215.952,468.212C218.28,472.354 216.806,477.606 212.664,479.933C208.522,482.261 203.27,480.787 200.942,476.645L178.854,437.332L167.517,479.64C166.288,484.229 161.563,486.956 156.974,485.727C152.385,484.497 149.657,479.773 150.887,475.183C150.887,475.183 162.313,432.539 162.314,432.539L124.015,454.651C119.9,457.027 114.631,455.615 112.255,451.5C109.88,447.386 111.291,442.116 115.406,439.741L161.894,412.901C147.752,405.127 134.984,395.16 124.05,383.463C121.28,391.336 116.763,397.091 109.879,399.427C109.542,399.546 109.2,399.653 108.852,399.746C93.626,403.825 74.298,381.138 65.717,349.114C57.136,317.089 62.531,287.777 77.757,283.697C79.586,283.199 81.432,282.538 83.266,281.769ZM300.255,168.047C310.009,168.047 317.928,180.628 317.928,196.124C317.928,211.62 310.009,224.201 300.255,224.201C290.501,224.201 282.582,211.62 282.582,196.124C282.582,180.628 290.501,168.047 300.255,168.047Z" style="fill:rgb(0,104,54);"/>
                        </g>
                        <g transform="matrix(-2.44706,-0.469721,-0.469721,2.44706,889.358,-998.69)">
                            <path d="M173.662,534.316C196.226,521.624 194.111,500 194.111,500C194.111,500 205.186,516.299 206.597,531.107C208.007,545.915 151.098,547.008 173.662,534.316Z" style="fill:rgb(0,104,54);"/>
                        </g>
                        <g transform="matrix(2.19464,-1.17996,1.17996,2.19464,-871.28,-722.895)">
                            <path d="M173.662,534.316C196.226,521.624 194.111,500 194.111,500C194.111,500 209.623,511.047 211.034,525.854C212.444,540.662 151.098,547.008 173.662,534.316Z" style="fill:rgb(0,104,54);"/>
                        </g>
                    </g>
                    <g transform="matrix(1,0,0,1,572.713,-360.466)">
                        <g transform="matrix(0.820537,0,0,0.820537,26.8016,83.3909)">
                            <path d="M83.266,735.074C83.26,734.525 83.257,733.974 83.257,733.423L83.257,680.699C83.257,597.132 151.103,529.286 234.671,529.286C305.001,529.286 364.197,577.34 381.187,642.385L445.462,686.305L386.085,726.878L386.085,733.423C386.085,733.974 386.082,734.525 386.076,735.074C387.91,735.843 389.756,736.504 391.585,737.003C406.811,741.083 412.206,770.395 403.625,802.419C395.044,834.443 375.716,857.131 360.49,853.051C360.142,852.958 359.8,852.852 359.463,852.732C352.579,850.396 348.062,844.641 345.292,836.768C334.203,848.631 321.233,858.71 306.857,866.53L354.053,894.519C358.14,896.942 359.49,902.228 357.066,906.315C354.643,910.402 349.357,911.752 345.27,909.328L306.481,886.325L317.818,928.636C319.048,933.225 316.32,937.95 311.731,939.18C307.141,940.409 302.417,937.682 301.187,933.092C301.187,933.092 289.76,890.445 289.76,890.445L267.646,928.746C265.27,932.861 260.001,934.273 255.886,931.898C251.771,929.522 250.359,924.252 252.735,920.137L276.5,878.975C263.212,882.792 249.178,884.836 234.671,884.836C219.821,884.836 205.467,882.694 191.895,878.699L215.952,921.517C218.28,925.659 216.806,930.911 212.664,933.238C208.522,935.566 203.27,934.092 200.942,929.95L178.854,890.637L167.517,932.945C166.288,937.534 161.563,940.262 156.974,939.032C152.385,937.802 149.657,933.078 150.887,928.489C150.887,928.489 162.313,885.844 162.314,885.844L124.015,907.956C119.9,910.332 114.631,908.92 112.255,904.805C109.88,900.691 111.291,895.422 115.406,893.046L161.894,866.206C147.752,858.432 134.984,848.465 124.05,836.768C121.28,844.641 116.763,850.396 109.879,852.732C109.542,852.852 109.2,852.958 108.852,853.051C93.626,857.131 74.298,834.443 65.717,802.419C57.136,770.395 62.531,741.083 77.757,737.003C79.586,736.504 81.432,735.843 83.266,735.074ZM300.255,621.352C310.009,621.352 317.928,633.933 317.928,649.429C317.928,664.925 310.009,677.506 300.255,677.506C290.501,677.506 282.582,664.925 282.582,649.429C282.582,633.933 290.501,621.352 300.255,621.352Z" style="fill:rgb(0,52,27);"/>
                        </g>
                        <g transform="matrix(2.44706,-0.469721,0.469721,2.44706,-551.115,-638.554)">
                            <path d="M173.662,534.316C196.226,521.624 194.111,500 194.111,500C194.111,500 209.623,511.047 211.034,525.854C212.444,540.662 151.098,547.008 173.662,534.316Z" style="fill:rgb(0,52,27);"/>
                        </g>
                        <g transform="matrix(2.19464,-1.17996,1.17996,2.19464,-826.286,-360.644)">
                            <path d="M173.662,534.316C196.226,521.624 194.111,500 194.111,500C194.111,500 209.623,511.047 211.034,525.854C212.444,540.662 151.098,547.008 173.662,534.316Z" style="fill:rgb(0,52,27);"/>
                        </g>
                    </g>
                </g>
                <g transform="matrix(2.28461,0,0,0.416424,-2496.78,516.819)">
                    <path d="M1108.62,480.333L1108.62,723.752L1092.96,723.752L1092.96,135.856L1126.27,135.856C1131.9,135.856 1136.69,136.808 1140.62,138.712C1144.56,140.616 1148.16,143.618 1151.42,147.719C1160.38,158.85 1167.23,177.817 1171.97,204.62C1176.7,231.422 1179.07,264.888 1179.07,305.019C1179.07,328.746 1178.24,349.983 1176.57,368.73C1174.91,387.477 1172.57,403.734 1169.56,417.501C1166.54,431.269 1162.94,442.546 1158.74,451.334C1154.55,460.121 1149.89,466.566 1144.76,470.667L1144.76,472.424L1182.82,723.752L1167.15,723.752L1127.56,480.333L1108.62,480.333ZM1108.62,200.445L1108.62,415.744L1124.1,415.744C1128.9,415.744 1133,415.011 1136.4,413.547C1139.8,412.082 1142.84,409.446 1145.53,405.638C1150.98,398.022 1155.17,385.866 1158.12,369.169C1161.07,352.472 1162.54,330.65 1162.54,303.701C1162.48,278.509 1161.07,258.224 1158.31,242.846C1155.56,227.468 1151.74,216.41 1146.88,209.673C1144.57,206.45 1141.81,204.107 1138.61,202.642C1135.41,201.178 1131.34,200.445 1126.4,200.445L1108.62,200.445Z" style="fill:rgb(0,104,54);fill-rule:nonzero;"/>
                    <path d="M1284.02,487.363L1284.02,723.752L1268.35,723.752L1268.35,487.363L1221.55,135.856L1238.66,135.856L1275.94,421.456L1276.42,421.456L1313.71,135.856L1330.82,135.856L1284.02,487.363Z" style="fill:rgb(0,104,54);fill-rule:nonzero;"/>
                    <path d="M1391.27,390.259L1458.64,390.259L1458.64,135.856L1474.31,135.856L1474.31,723.752L1458.64,723.752L1458.64,454.849L1391.27,454.849L1391.27,723.752L1375.61,723.752L1375.61,135.856L1391.27,135.856L1391.27,390.259Z" style="fill:rgb(0,104,54);fill-rule:nonzero;"/>
                    <path d="M1599.72,723.752L1592.52,723.752L1560.13,372.684C1555.64,324.352 1551.16,271.772 1546.67,214.945L1545.9,214.945C1546.8,296.671 1547.25,371.512 1547.25,439.47L1547.25,723.752L1531.59,723.752L1531.59,135.856L1554.17,135.856L1584.44,468.47C1587.9,506.55 1591.72,552.392 1595.88,605.997L1596.36,605.997C1600.97,546.534 1604.79,500.691 1607.8,468.47L1638.07,135.856L1660.65,135.856L1660.65,723.752L1644.99,723.752L1644.99,439.47C1644.99,372.977 1645.44,298.135 1646.34,214.945L1645.57,214.945C1640.83,274.994 1636.34,327.574 1632.11,372.684L1599.72,723.752Z" style="fill:rgb(0,104,54);fill-rule:nonzero;"/>
                    <rect x="1717.93" y="135.856" width="15.665" height="587.896" style="fill:rgb(0,104,54);fill-rule:nonzero;"/>
                    <rect x="1790.88" y="135.856" width="15.665" height="587.896" style="fill:rgb(0,104,54);fill-rule:nonzero;"/>
                    <path d="M1929.85,463.637C1937.73,515.484 1945.51,568.796 1953.2,623.572L1953.78,623.572C1952.94,566.452 1952.53,508.161 1952.53,448.697L1952.53,135.856L1968.29,135.856L1968.29,723.752L1952.62,723.752L1902.17,395.971C1893.45,338.851 1885.67,285.54 1878.82,236.036L1878.24,236.036C1879.07,289.64 1879.49,352.179 1879.49,423.653L1879.49,723.752L1863.82,723.752L1863.82,135.856L1879.39,135.856L1929.85,463.637Z" style="fill:rgb(0,104,54);fill-rule:nonzero;"/>
                </g>
            </g>
        </g>
    </g>
</svg>
