<?xml version="1.0" encoding="UTF-8" standalone="no"?><!DOCTYPE svg PUBLIC "-//W3C//DTD SVG 1.1//EN" "http://www.w3.org/Graphics/SVG/1.1/DTD/svg11.dtd"><svg width="100%" height="100%" viewBox="0 0 100 100" version="1.1" xmlns="http://www.w3.org/2000/svg" xmlns:xlink="http://www.w3.org/1999/xlink" xml:space="preserve" xmlns:serif="http://www.serif.com/" style="fill-rule:evenodd;clip-rule:evenodd;stroke-linejoin:round;stroke-miterlimit:2;"><rect id="Artboard1" x="0" y="0" width="100" height="100" style="fill:none;"/><g id="Artboard11" serif:id="Artboard1"><path d="M84.085,15.915c-3.122,-3.123 -8.193,-3.123 -11.316,-0l-56.854,56.854c-3.123,3.123 -3.123,8.194 -0,11.316c3.122,3.123 8.193,3.123 11.316,0l56.854,-56.854c3.123,-3.123 3.123,-8.194 0,-11.316Z" style="fill:#fff;"/><path d="M84.085,84.085c3.123,-3.122 3.123,-8.193 0,-11.316l-56.854,-56.854c-3.123,-3.123 -8.194,-3.123 -11.316,-0c-3.123,3.122 -3.123,8.193 -0,11.316l56.854,56.854c3.123,3.123 8.194,3.123 11.316,0Z" style="fill:#fff;"/></g></svg>